<?xml version="1.0" encoding="UTF-8" standalone="no"?>
<!-- Created with Inkscape (http://www.inkscape.org/) -->

<svg
   width="210mm"
   height="297mm"
   viewBox="0 0 210 297"
   version="1.1"
   id="svg5"
   inkscape:export-filename="/Users/edsummers/bitmap.png"
   inkscape:export-xdpi="96"
   inkscape:export-ydpi="96"
   sodipodi:docname="twarc.png.svg"
   inkscape:version="1.1.1 (c3084ef, 2021-09-22)"
   xmlns:inkscape="http://www.inkscape.org/namespaces/inkscape"
   xmlns:sodipodi="http://sodipodi.sourceforge.net/DTD/sodipodi-0.dtd"
   xmlns:xlink="http://www.w3.org/1999/xlink"
   xmlns="http://www.w3.org/2000/svg"
   xmlns:svg="http://www.w3.org/2000/svg">
  <sodipodi:namedview
     id="namedview7"
     pagecolor="#ffffff"
     bordercolor="#666666"
     borderopacity="1.0"
     inkscape:pageshadow="2"
     inkscape:pageopacity="0.0"
     inkscape:pagecheckerboard="0"
     inkscape:document-units="mm"
     showgrid="false"
     inkscape:zoom="0.90583672"
     inkscape:cx="209.19885"
     inkscape:cy="421.15758"
     inkscape:window-width="1312"
     inkscape:window-height="969"
     inkscape:window-x="0"
     inkscape:window-y="25"
     inkscape:window-maximized="0"
     inkscape:current-layer="layer1" />
  <defs
     id="defs2">
    <linearGradient
       inkscape:collect="always"
       id="linearGradient4554">
      <stop
         style="stop-color:#ff0000;stop-opacity:1;"
         offset="0"
         id="stop4550" />
      <stop
         style="stop-color:#ff0000;stop-opacity:0;"
         offset="1"
         id="stop4552" />
    </linearGradient>
    <rect
       x="382.51927"
       y="512.2336"
       width="44.710044"
       height="82.796379"
       id="rect9259" />
    <linearGradient
       inkscape:collect="always"
       xlink:href="#linearGradient4554"
       id="linearGradient4556"
       x1="47.679171"
       y1="172.10558"
       x2="86.711514"
       y2="172.10558"
       gradientUnits="userSpaceOnUse" />
    <linearGradient
       inkscape:collect="always"
       xlink:href="#linearGradient4554"
       id="linearGradient4558"
       x1="88.587205"
       y1="174.21022"
       x2="147.67776"
       y2="174.21022"
       gradientUnits="userSpaceOnUse" />
  </defs>
  <g
     inkscape:label="Layer 1"
     inkscape:groupmode="layer"
     id="layer1">
    <text
       xml:space="preserve"
       style="font-size:41.1029px;line-height:1.25;font-family:Monaco;-inkscape-font-specification:Monaco;letter-spacing:0px;fill:#1da1f2;fill-opacity:1;stroke:#1da1f2;stroke-width:0.642233;stroke-opacity:1"
       x="45.780731"
       y="184.06653"
       id="text2641"
       inkscape:export-filename="/Users/edsummers/bitmap.png"
       inkscape:export-xdpi="96"
       inkscape:export-ydpi="96"><tspan
         sodipodi:role="line"
         id="tspan2639"
         style="font-style:normal;font-variant:normal;font-weight:bold;font-stretch:normal;font-family:'Inconsolata Nerd Font';-inkscape-font-specification:'Inconsolata Nerd Font Bold';fill:#1da1f2;fill-opacity:1;stroke:#1da1f2;stroke-width:0.642233;stroke-opacity:1"
         x="45.780731"
         y="184.06653"
         dx="0">tw</tspan></text>
    <text
       xml:space="preserve"
       transform="scale(0.26458333)"
       id="text9257"
       style="line-height:1.25;font-family:Monaco;font-size:64px;-inkscape-font-specification:Monaco;white-space:pre;shape-inside:url(#rect9259)" />
    <text
       xml:space="preserve"
       style="font-size:16.9333px;line-height:1.25;font-family:Monaco;-inkscape-font-specification:Monaco;stroke-width:0.264583"
       x="84.267166"
       y="113.18379"
       id="text11775"><tspan
         sodipodi:role="line"
         id="tspan11773"
         style="stroke-width:0.264583"
         x="84.267166"
         y="113.18379" /></text>
    <text
       xml:space="preserve"
       style="font-size:41.1029px;line-height:1.25;font-family:'Inconsolata Nerd Font Mono';-inkscape-font-specification:'Inconsolata Nerd Font Mono';fill:#1da1f2;fill-opacity:1;stroke:#1da1f2;stroke-width:0.642233;stroke-opacity:1"
       x="87.264206"
       y="183.7872"
       id="text16587"
       inkscape:export-filename="/Users/edsummers/bitmap.png"
       inkscape:export-xdpi="96"
       inkscape:export-ydpi="96"><tspan
         sodipodi:role="line"
         id="tspan16585"
         style="font-weight:bold;fill:#1da1f2;fill-opacity:1;stroke:#1da1f2;stroke-width:0.642233;stroke-opacity:1"
         x="87.264206"
         y="183.7872">arc</tspan></text>
    <path
       id="path2"
       style="stroke-width:0.0952373;fill:#1da1f2;fill-opacity:1;stroke:#1da1f2;stroke-opacity:1"
       d="m 53.97941,81.01404 c -3.337404,0 -6.057511,2.720488 -6.057511,6.057511 l -5.16e-4,63.953719 c 0,3.3374 2.720488,6.05751 6.057511,6.05751 h 87.885076 c 3.3374,0 6.05751,-2.72011 6.05751,-6.05751 V 87.071551 c 0,-3.337404 -2.71997,-6.057511 -6.057,-6.057511 z m -5.16e-4,5.714897 h 87.885076 c 0.19457,0 0.34313,0.148934 0.34313,0.343132 v 63.953721 c 0,0.19457 -0.14894,0.34313 -0.34313,0.34313 H 53.978894 c -0.194572,0 -0.343133,-0.14893 -0.343133,-0.34313 V 87.072069 c 0,-0.194571 0.148934,-0.343132 0.343133,-0.343132 z M 66.223107,97.57117 c -0.438603,0 -0.87838,0.168862 -1.21543,0.505912 -0.6741,0.662946 -0.6741,1.748491 0,2.422588 l 9.725504,9.72602 -9.360151,9.35964 c -0.6741,0.66295 -0.6741,1.749 0,2.42311 0.331494,0.33146 0.777152,0.50281 1.211294,0.50281 v 5.2e-4 c 0.445712,0 0.879967,-0.17149 1.211813,-0.50333 l 10.571448,-10.57145 c 0.6741,-0.66295 0.6741,-1.74901 0,-2.42311 L 67.430268,98.077082 C 67.098796,97.740032 66.661709,97.57117 66.223107,97.57117 Z m 17.927071,21.51186 c -0.94865,0 -1.714624,0.76546 -1.714624,1.71411 0,0.94865 0.765974,1.71411 1.714624,1.71411 h 19.988442 c 0.94827,0 1.71438,-0.76546 1.71411,-1.71411 0,-0.94865 -0.76546,-1.71411 -1.71411,-1.71411 z"
       inkscape:export-filename="/Users/edsummers/bitmap.png"
       inkscape:export-xdpi="96"
       inkscape:export-ydpi="96" />
  </g>
  <g
     inkscape:groupmode="layer"
     id="layer2"
     inkscape:label="Layer 2" />
</svg>
